<mxfile host="app.diagrams.net" modified="2023-10-07T19:14:48.862Z" agent="Mozilla/5.0 (Macintosh; Intel Mac OS X 10_15_7) AppleWebKit/605.1.15 (KHTML, like Gecko) Version/17.0 Safari/605.1.15" version="22.0.4" etag="cDfRN5cskCglOb4ZQ6ZE" type="github">
  <diagram name="Page-1" id="m7rgM3q8fNS0igMU6RyZ">
    <mxGraphModel>
      <root>
        <mxCell id="0" />
        <mxCell id="1" parent="0" />
      </root>
    </mxGraphModel>
  </diagram>
</mxfile>
